<svg xmlns="http://www.w3.org/2000/svg" viewBox="0 0 516.29 742.6"><defs><style>.cls-1{fill:#887262;}.cls-2{fill:#568c57;}.cls-3{opacity:0.28;}.cls-10,.cls-4{fill:#fff;}.cls-4{opacity:0.14;}.cls-5{fill:#c99a71;}.cls-6{fill:#bc8d69;}.cls-7{opacity:0.19;}.cls-8{opacity:0.07;}.cls-9{opacity:0.15;}.cls-10{opacity:0.18;}.cls-11{fill:#a37d5c;}</style></defs><g id="Calque_2" data-name="Calque 2"><g id="Calque_1-2" data-name="Calque 1"><polygon class="cls-1" points="277.85 742.6 68.8 677.48 68.8 658.39 480.49 658.39 480.49 677.48 277.85 742.6"/><polygon class="cls-2" points="277.85 723.72 68.8 658.59 68.8 639.51 277.85 591.55 480.49 639.51 480.49 658.59 277.85 723.72"/><polygon class="cls-3" points="277.85 704.81 277.85 742.6 68.8 677.48 68.8 639.68 277.85 704.81"/><polygon class="cls-4" points="277.85 723.89 277.85 704.81 480.49 639.68 480.49 658.77 277.85 723.89"/><polygon class="cls-5" points="201.06 652.15 192.46 462.39 221.93 194.26 339.17 189.21 362.64 465.05 357.82 648.41 337.15 659.37 275.75 672.72 224.43 663.16 201.06 652.15"/><polygon class="cls-5" points="221.93 194.26 133.69 132.38 123.86 107.65 148.5 105.35 161.13 124.25 267.79 149.59 366.13 106.52 383.5 52.66 402.93 52.66 385.24 127.37 324.03 194.26 221.93 194.26"/><polygon class="cls-6" points="273.19 154.29 367.14 158.46 400 129.98 420.09 129.98 378.29 189.91 274.88 198.19 273.19 154.29"/><polygon class="cls-7" points="243.69 666.75 221.81 477.98 233.72 256.77 274.88 198.19 141.9 130.34 133.29 110.13 124.71 109.77 133.69 132.38 221.93 194.26 192.46 462.39 201.06 652.15 224.43 663.16 243.69 666.75"/><polygon class="cls-8" points="367.14 158.46 378.29 189.91 420.09 129.98 400 129.98 367.14 158.46"/><polygon class="cls-7" points="274.88 198.19 374.86 180.25 378.29 189.91 274.88 198.19"/><polygon class="cls-5" points="374.86 180.25 402.93 144.89 409.18 145.62 378.29 189.91 374.86 180.25"/><polygon class="cls-4" points="274.88 198.19 302.28 265.4 316.08 480.76 308.96 665.5 337.15 659.37 357.82 648.41 362.64 465.05 339.49 193.02 274.88 198.19"/><polygon class="cls-7" points="376.31 74.94 388.5 77.22 397.61 75.13 399.35 67.78 378.63 67.76 376.31 74.94"/><polygon class="cls-7" points="374.86 151.76 395.71 153.98 404.76 151.95 408.72 146.27 384.45 143.45 374.86 151.76"/><polygon class="cls-9" points="347.81 290.7 304.65 302.37 249.63 301.98 249.63 305.08 304.85 305.51 348.04 293.49 347.81 290.7"/><polygon class="cls-9" points="209 311.9 230.39 316.95 249.22 316.95 249.22 320.33 230.1 320.33 208.62 315.35 209 311.9"/><polygon class="cls-9" points="350.77 325.6 306.86 339.19 291.97 339.19 291.97 342.85 307.24 342.85 351.1 329.45 350.77 325.6"/><polygon class="cls-9" points="204.62 351.72 228.34 359.65 285.83 359.65 285.83 362.66 228.07 362.66 204.33 354.4 204.62 351.72"/><polygon class="cls-9" points="263.26 379.1 309.72 379.1 326.52 373.94 327.41 377.49 310.12 382.96 263.26 382.96 263.26 379.1"/><polygon class="cls-9" points="200.65 387.9 226.25 397.38 257.07 397.38 257.07 400.61 225.96 400.61 200.34 390.73 200.65 387.9"/><polygon class="cls-9" points="269.12 266.97 302.44 266.97 323.73 262.23 324.15 265.19 302.76 270.03 269.12 270.03 269.12 266.97"/><polygon class="cls-9" points="245.81 427.05 245.81 430.44 313.05 430.44 358.58 417.32 358.33 414.4 312.69 427.42 245.81 427.05"/><polygon class="cls-9" points="194.29 445.58 223.03 456.71 304.33 456.71 304.33 460.44 222.63 460.44 193.98 448.57 194.29 445.58"/><polygon class="cls-9" points="270.97 480.05 316.01 480.05 338.2 472.09 338.2 475.54 315.9 483.86 270.97 483.86 270.97 480.05"/><polygon class="cls-9" points="362.05 493.08 314.98 510.91 228.78 510.91 228.78 514.69 314.66 514.69 361.98 496.59 362.05 493.08"/><polygon class="cls-9" points="195.97 531.02 229.41 544.23 306.6 544.23 306.6 548.35 230.06 548.35 196.17 535.04 195.97 531.02"/><polygon class="cls-9" points="257.67 571.72 257.67 575.92 312.16 575.92 343.88 564.74 343.88 561.3 312.59 571.94 257.67 571.72"/><polygon class="cls-9" points="198.26 590.54 236.58 606 311.32 606 337.53 597.61 337.53 600.99 311.22 609.66 237.09 609.79 198.43 594.1 198.26 590.54"/><polygon class="cls-6" points="392.7 80.36 428.87 77.06 433.44 67.76 437.25 67.76 432.18 81.5 390.8 87.26 392.7 80.36"/><polygon class="cls-6" points="429.87 76.96 425.23 67.76 422.77 67.76 426.18 77.32 429.87 76.96"/><polygon class="cls-5" points="375.92 76.2 358.86 69.28 352.92 60.84 346.94 59.6 355.87 73.15 374.4 80.9 375.92 76.2"/><polygon class="cls-6" points="410.23 78.76 407.31 67.76 410.26 67.76 413.87 78.43 410.23 78.76"/><polygon class="cls-5" points="133.69 132.38 82.07 124.03 72.03 107.19 77.88 107.19 85.5 119.04 130.09 123.21 133.69 132.38"/><polygon class="cls-5" points="99.22 108.41 94.35 120.1 99.62 120.56 102.98 108.56 99.22 108.41"/><polygon class="cls-7" points="394.04 57.88 376.76 117.03 302.28 155.58 273.19 154.29 267.79 149.59 366.13 106.52 381.82 57.88 394.04 57.88"/><polygon class="cls-2" points="476.5 67.76 358 67.76 285.05 52.99 274.88 23.45 317.33 0 476.5 0 511.87 13.9 516.29 37.35 476.5 67.76"/><polygon class="cls-7" points="317.33 0 317.33 36 365.15 48.19 436.13 52.26 476.5 67.76 358 67.76 285.05 52.99 274.88 23.45 317.33 0"/><polygon class="cls-10" points="317.33 0 368.89 10.59 481.13 14.41 500.79 33.88 476.5 67.76 516.29 37.35 511.87 13.9 476.5 0 317.33 0"/><polygon class="cls-2" points="467.25 147.48 379.13 146.15 326.89 138.24 315.21 110.96 335.7 101.06 424.24 96.93 493.43 121.06 498.66 140.52 467.25 147.48"/><polygon class="cls-7" points="379.13 146.15 467.25 147.48 372.02 133.34 350.48 117.76 353.69 100.22 335.7 101.06 315.21 110.96 326.89 138.24 379.13 146.15"/><polygon class="cls-10" points="498.66 140.52 467.25 147.48 470.44 124.88 417.8 106.07 353.69 100.22 424.24 96.93 493.43 121.06 498.66 140.52"/><polygon class="cls-7" points="126.32 113.94 129.26 121.35 138.43 122.16 157.41 118.68 153.51 112.85 135.12 114.28 126.32 113.94"/><polygon class="cls-11" points="390.8 87.26 390.8 87.26 430.9 80.15 432.18 81.5 390.8 87.26"/><polygon class="cls-10" points="413.87 78.43 412.69 78.53 409.4 67.76 410.26 67.76 413.87 78.43"/><polygon class="cls-10" points="429.39 76.01 428.87 77.06 428.41 77.1 424.33 67.76 425.23 67.76 429.39 76.01"/><polygon class="cls-10" points="430.9 80.15 435.39 67.76 437.25 67.76 432.18 81.5 430.9 80.15"/><polygon class="cls-7" points="375.43 77.72 357.14 69.94 355.29 67.21 351.44 66.43 355.87 73.15 374.4 80.9 375.43 77.72"/><polygon class="cls-7" points="353.96 70.25 357.87 70.25 359.62 69.59 358.86 69.28 357.75 67.7 351.44 66.43 353.96 70.25"/><polygon class="cls-7" points="408.55 72.43 410.91 72.7 411.84 72.43 410.26 67.76 409.4 67.76 407.31 67.76 408.55 72.43"/><polygon class="cls-7" points="424.3 72.04 426.2 72.04 427.15 71.57 425.23 67.76 422.77 67.76 424.3 72.04"/><polygon class="cls-7" points="432.09 70.51 434.36 70.62 436.39 70.1 437.25 67.76 433.44 67.76 432.09 70.51"/><polygon class="cls-7" points="131.11 125.8 83.25 120.56 76.48 109.37 73.26 109.25 82.07 124.03 133.69 132.38 131.11 125.8"/><polygon class="cls-7" points="98.47 110.19 93.68 121.7 96.9 122.05 100.66 110.19 98.47 110.19"/><polygon class="cls-7" points="73.26 109.25 78.05 117.28 81.54 117.72 83.73 116.3 79.35 109.48 73.26 109.25"/><polygon class="cls-7" points="97.65 112.04 95.74 116.63 98.54 116.87 100.84 116.19 101.93 112.39 97.65 112.04"/><polygon class="cls-5" points="161.13 124.25 183.69 116.12 188.97 107.08 194.63 106.66 190.17 118.34 174.58 127.44 161.13 124.25"/><polygon class="cls-7" points="161.13 124.25 166.1 125.43 186.49 117.05 191.83 106.66 188.97 107.08 183.69 116.12 161.13 124.25"/><polygon class="cls-2" points="6.06 103.35 49.79 111.02 135.12 114.28 208.95 108.56 256.94 107.82 277.48 82.99 282.78 55.44 250.79 36.82 171.58 42.94 99.03 32.02 25.74 47.24 0 83.74 6.06 103.35"/><polygon class="cls-10" points="99.03 32.02 25.74 47.24 104.53 48.4 164.99 64.23 232.81 61.33 243.37 80.2 230.25 108.23 256.94 107.82 277.48 82.99 282.78 55.44 250.79 36.82 171.58 42.94 99.03 32.02"/><polygon class="cls-7" points="25.74 47.24 44.07 81.51 96.37 90.22 141.39 94.15 208.95 108.56 135.12 114.28 49.79 111.02 6.06 103.35 0 83.74 25.74 47.24"/><polygon class="cls-7" points="184.33 115.03 187.16 115.74 191.44 115.03 193.44 109.77 187.12 110.25 184.33 115.03"/></g></g></svg>