<svg xmlns="http://www.w3.org/2000/svg" viewBox="0 0 552.76 530.43"><defs><style>.cls-1{fill:#7f5f4c;}.cls-2{fill:#3a935e;}.cls-3{opacity:0.28;}.cls-4,.cls-9{fill:#fff;}.cls-4{opacity:0.14;}.cls-5{fill:#593f30;}.cls-6{opacity:0.19;}.cls-7{fill:#664a3c;}.cls-8{fill:#3f302b;}.cls-9{opacity:0.18;}</style></defs><g id="Calque_2" data-name="Calque 2"><g id="Calque_1-2" data-name="Calque 1"><polygon class="cls-1" points="253.28 530.43 0 451.52 0 428.4 498.8 428.4 498.8 451.52 253.28 530.43"/><polygon class="cls-2" points="253.28 507.76 0 428.86 0 405.74 253.28 347.62 498.8 405.74 498.8 428.86 253.28 507.76"/><polygon class="cls-3" points="253.28 484.64 253.28 530.43 0 451.52 0 405.74 253.28 484.64"/><polygon class="cls-4" points="253.28 507.76 253.28 484.64 498.8 405.74 498.8 428.86 253.28 507.76"/><path class="cls-1" d="M343.31,263.26s50.32.49,75.21-9.89c16.07-6.69,14.54-20.59,14.54-20.59h18.36s.64,29.54-25.34,43.88c-48.82,26.95-93.79,24.73-112.15,42.6s-18.12,37.84-18.12,37.84L287.06,295Z"/><path class="cls-5" d="M188.67,297.16c-12.41-5.44-32.5-3.29-42.83-16.21s-6.75-36.57-6.75-36.57l15.52,2.48s-2.85,25.07,25.49,28c18,1.87,56.23-.68,56.23-.68l-47.46,49.34S201.77,302.9,188.67,297.16Z"/><polygon class="cls-2" points="552.76 237.1 547.22 215.2 530.96 202.58 499.41 201.82 488.75 185.18 463.21 183.76 457.49 170.55 428.47 162.54 400.81 172.25 400.12 188.05 381.29 188.39 370.67 196.22 368.02 206.83 350.79 207.67 340.46 222.18 340.46 237.1 552.76 237.1"/><path class="cls-5" d="M178.06,416.49S137.9,361.25,188.39,308s129.93-50.39,126.2-90.26c-2.17-23.25-91.21-69.27-91.21-69.27h40.83s103.45,43.45,101.25,84.47c-2.51,46.74-69.22,70-66.93,104.41s16.06,72.28,16.06,72.28L255,436.87Z"/><polygon class="cls-2" points="485.64 158.91 481.25 121.33 451.54 90.78 382.05 88.46 377.34 70.65 349.11 56.7 291.03 55.82 278.36 22.37 220.99 0 169.94 22.95 160.95 55.97 114.29 56.31 97.04 91.21 56.16 91.12 26.33 120.18 21.16 158.91 485.64 158.91"/><polygon class="cls-2" points="35.12 258.53 37.23 237.11 54.62 218.41 78.44 218.38 89.33 196.58 113.14 196.58 120.22 181.66 149.66 173.44 174.24 183.67 179.4 201.74 204.74 201.74 223.29 214.65 229.02 227.85 251.6 228.25 264.21 244.19 263.16 258.53 35.12 258.53"/><path class="cls-1" d="M443.74,254.38c12.57-3.83,23-8.47,26.2-17.36h5.28c-5.16,15.35-17,22.81-39.68,29.81"/><path class="cls-5" d="M114.48,258.53c4.69,6.36,13.43,10.56,26.33,12.53l3.72,8.09c-19.61-3.93-28.86-11.47-36.69-20.62Z"/><polygon class="cls-6" points="370.1 237.1 376.29 221.43 393.81 213.57 404.14 197.91 421.42 191.79 429.33 175.7 457.49 170.55 428.47 162.54 400.81 172.25 400.12 188.05 381.29 188.39 370.67 196.22 368.02 206.83 350.79 207.67 365.52 237.1 370.1 237.1"/><path class="cls-1" d="M287.06,360.26c13-3.2,22.78-7.58,27.25-19.12h16.83c-5.74,19.32-16.22,32.66-35,41.5Z"/><path class="cls-5" d="M200,158.72c16.11,8.65,38.54,11.14,65.84,12.13l13.85,2.3,2.87,9.69c-41.63-5-66.81-6.45-93.58-24.12Z"/><path class="cls-1" d="M255,436.87s-43.71-82.34-20.77-109.31,109-70.21,105.51-103.83c-2.65-25.87-75.53-64.82-75.53-64.82h22.21s80.64,39.11,79.07,70.94C363,281.1,304.74,303.19,299.39,327,293.85,351.66,320,415.62,320,415.62Z"/><polygon class="cls-2" points="410.14 341.53 408.54 325.27 395.35 311.08 377.28 311.06 367.85 297.89 350.35 296.87 343.76 283.97 323.23 277.16 304.59 284.73 300.67 298.44 281.45 298.44 267.38 308.23 263.02 318.25 245.89 318.56 236.33 330.65 237.13 341.53 410.14 341.53"/><path class="cls-5" d="M349.3,273.93l7.4-13.81s49.59.13,63.55-9.28c11.14-7.51,12.46-13.82,12.46-13.82l5.61,0s-2.78,16.5-18.84,24.34S349.3,273.93,349.3,273.93Z"/><path class="cls-7" d="M448.36,249.74c9.37-3.63,15.93-6.13,18.07-12.72h3.51c-2.64,7.83-9.7,11.81-23,16.29Z"/><path class="cls-5" d="M313.54,341.53c-5.83,9-12.91,14.52-21.41,14.9l-9.47,6.22c12.81,1.53,27.35-3.86,36-21.12Z"/><path class="cls-8" d="M236.33,274.21s-46.08,3.45-61.83-.28-16.33-15.4-16.33-15.4H151s3.73,18.39,19.22,20.62,50.89,2.91,50.89,2.91Z"/><path class="cls-8" d="M140.18,268.84c-11.84-1.73-18.46-5.59-23.6-10.31h-3.15c6.6,7.77,16.17,11.77,27.64,13.36Z"/><path class="cls-5" d="M157.86,272.26C168.26,270,178.32,265,180,258.53h4.21c-1.05,8.4-9.9,15.61-20.17,18.63C160.5,276.56,159,274.27,157.86,272.26Z"/><path class="cls-8" d="M257.76,167.88c-18.36-1.29-35.51-4.14-51.11-9l-8.41-.19c15.76,8,41.1,12,69.41,14.72Z"/><path class="cls-8" d="M172.63,273.43c6.2-3.66,10.4-8.43,11.55-14.9h1.87c-1.39,6.94-4.11,12.14-9.76,16Z"/><polygon class="cls-6" points="152.01 158.73 161.19 113.01 205.36 92.36 203.06 62.53 233.94 32.7 221.99 0 170.94 22.95 161.96 55.97 115.29 56.31 98.05 91.21 57.16 91.12 27.33 120.18 22.16 158.91 152.01 158.73"/><polygon class="cls-9" points="369.24 104.03 435.54 119.71 446.61 158.75 485.64 158.91 481.25 121.33 451.54 90.78 382.05 88.46 377.34 70.65 349.11 56.7 291.03 55.82 313.74 67.31 350.79 79.45 369.24 104.03"/><polygon class="cls-6" points="149.66 173.44 174.24 183.67 141.07 191.03 133.22 207.09 105.11 218.57 101.09 232.78 77 239.79 72.41 258.53 35.12 258.53 37.23 237.11 54.62 218.41 78.44 218.38 89.33 196.58 113.14 196.58 120.22 181.66 149.66 173.44"/><polygon class="cls-9" points="232.94 258.53 231.32 242.95 205.79 230.14 204.07 215.99 179.4 201.74 204.74 201.74 223.29 214.65 229.02 227.85 251.6 228.25 264.21 244.19 263.16 258.53 232.94 258.53"/><polygon class="cls-6" points="272.87 341.53 284.1 328.71 287.06 316.09 312.2 312.08 312.2 296.3 323.23 286.83 323.23 277.16 304.59 284.73 300.67 298.44 281.45 298.44 267.38 308.23 263.02 318.25 245.89 318.56 236.33 330.65 237.13 341.53 272.87 341.53"/><polygon class="cls-9" points="350.35 296.87 361.73 309.35 366.51 321.06 387.16 323.55 393.81 341.53 410.14 341.53 408.54 325.27 395.35 311.08 377.28 311.06 367.85 297.89 350.35 296.87"/><polygon class="cls-9" points="463.21 183.76 480.86 211.68 511.84 215.99 520.45 237.1 552.76 237.1 547.22 215.2 530.96 202.58 499.41 201.82 488.75 185.18 463.21 183.76"/></g></g></svg>