<svg xmlns="http://www.w3.org/2000/svg" viewBox="0 0 498.8 655.12"><defs><style>.cls-1{fill:#7f5f4c;}.cls-2{fill:#3a935e;}.cls-3{opacity:0.28;}.cls-4,.cls-7{fill:#fff;}.cls-4{opacity:0.14;}.cls-5{fill:#593f30;}.cls-6{opacity:0.19;}.cls-7{opacity:0.18;}.cls-8{opacity:0.15;}.cls-9{opacity:0.13;}</style></defs><g id="Calque_2" data-name="Calque 2"><g id="Calque_1-2" data-name="Calque 1"><polygon class="cls-1" points="253.28 655.12 0 576.21 0 553.09 498.8 553.09 498.8 576.21 253.28 655.12"/><polygon class="cls-2" points="253.28 632.45 0 553.54 0 530.42 253.28 472.31 498.8 530.42 498.8 553.54 253.28 632.45"/><polygon class="cls-3" points="253.28 609.33 253.28 655.12 0 576.21 0 530.42 253.28 609.33"/><polygon class="cls-4" points="253.28 632.45 253.28 609.33 498.8 530.42 498.8 553.54 253.28 632.45"/><polygon class="cls-5" points="249.4 552.4 249.4 467.62 223.8 467.62 223.8 542 249.4 552.4"/><polygon class="cls-1" points="249.4 552.4 272.31 541.4 272.31 467.62 249.4 467.62 249.4 552.4"/><polygon class="cls-2" points="251.38 152.3 94.23 443.87 165.59 467.62 249.4 467.62 249.4 467.62 332.06 467.62 404.57 438.77 251.38 152.3"/><polygon class="cls-6" points="94.23 443.87 251.38 152.3 165.59 467.62 94.23 443.87"/><polygon class="cls-7" points="332.06 467.62 251.38 152.3 404.57 438.77 332.06 467.62"/><polygon class="cls-8" points="143.77 351.96 192.82 365.4 306.19 365.75 357.29 350.35 348.42 333.76 153.03 334.77 143.77 351.96"/><polygon class="cls-2" points="249.4 58.85 111.84 319.02 182.05 345.86 249.4 345.86 316.77 345.86 386.95 319.02 249.4 58.85"/><polygon class="cls-7" points="251.38 62.6 386.95 319.02 316.77 345.86 251.38 62.6"/><polygon class="cls-6" points="111.84 319.02 249.4 58.85 182.05 345.86 111.84 319.02"/><polygon class="cls-8" points="174.92 199.71 212.57 214.34 286.61 213.83 326.26 204.23 317.2 187.09 182.26 185.83 174.92 199.71"/><polygon class="cls-2" points="249.4 0 152.31 171.19 203.5 196.21 249.4 196.21 295.29 196.21 350.44 173.24 249.4 0"/><polygon class="cls-7" points="249.4 0 295.29 196.21 350.44 173.24 249.4 0"/><polygon class="cls-6" points="249.4 0 203.5 196.21 152.31 171.19 249.4 0"/><polygon class="cls-9" points="223.8 467.62 272.31 467.62 272.31 479.96 249.4 483.89 223.8 479.49 223.8 467.62"/></g></g></svg>