<?xml version="1.0" encoding="UTF-8"?><svg xmlns="http://www.w3.org/2000/svg" viewBox="0 0 466.23 736.17"><defs><style>.d{opacity:.12;}.d,.e,.f,.g,.h{fill:#fff;}.i{fill:#e8c08b;}.j{fill:#7f5f4c;}.k{fill:#c99a71;}.l{fill:#a1b256;}.m{fill:#887262;}.e,.n{opacity:.21;}.f{opacity:.2;}.g,.o{opacity:.18;}.p{opacity:.28;}.h{opacity:.24;}</style></defs><g id="a"/><g id="b"><g id="c"><g><g><polygon class="m" points="232.06 736.17 0 663.88 0 642.69 457 642.69 457 663.88 232.06 736.17"/><polygon class="i" points="232.06 715.4 0 643.11 0 621.93 232.06 568.68 457 621.93 457 643.11 232.06 715.4"/><polygon class="p" points="232.06 694.22 232.06 736.17 0 663.88 0 621.93 232.06 694.22"/><polygon class="f" points="232.06 715.4 232.06 694.22 457 621.93 457 643.11 232.06 715.4"/></g><g><polygon class="j" points="127.64 622.45 137.87 596.23 165.14 593.41 182.03 612.91 170.63 642.36 144.6 644.39 127.64 622.45"/><path class="g" d="M165.14,593.41l6.27,18.49s-8.56,23.04-8.43,22.62c.12-.42-18.37,9.87-18.37,9.87l26.03-2.04,11.4-29.44-16.89-19.51Z"/><polygon class="o" points="165.14 593.41 147.09 603.2 138.72 623.58 144.6 644.39 127.64 622.45 137.87 596.23 165.14 593.41"/></g><g><polygon class="j" points="260.64 618.86 250.68 594.2 267.6 574.58 291.85 577.05 303.1 604.68 286.52 622.95 260.64 618.86"/><path class="g" d="M267.6,574.58l16.29,8.65s9.05,21.38,8.86,21.02c-.19-.37-6.23,18.69-6.23,18.69l16.58-18.27-11.24-27.63-24.26-2.46Z"/><polygon class="o" points="267.6 574.58 261.54 593.01 268.99 612.45 286.52 622.95 260.64 618.86 250.68 594.2 267.6 574.58"/></g><g><g><polygon class="k" points="201.64 633.05 207.69 568.68 238.09 559.95 270.75 570.68 257.36 634.78 229.76 643.55 201.64 633.05"/><polygon class="n" points="207.69 568.68 238.18 582.57 229.76 643.55 201.64 633.05 207.69 568.68"/><polygon class="e" points="207.69 568.68 238.09 559.95 270.75 570.68 238.18 582.57 207.69 568.68"/></g><g><polygon class="k" points="215.21 569.17 219.61 506.35 248.84 498.68 279.28 509.27 263 570.54 238.39 579.18 215.21 569.17"/><polygon class="n" points="219.61 506.35 248.5 518.7 238.39 579.18 215.21 569.17 219.61 506.35"/><polygon class="e" points="219.61 506.35 248.84 498.68 279.28 509.27 248.5 518.7 219.61 506.35"/></g><g><polygon class="k" points="226.23 506.79 228.5 446.57 257.01 437.3 285.33 448.21 272.12 508.92 249.05 515.88 226.23 506.79"/><polygon class="n" points="228.5 446.57 257.29 457.78 249.05 515.88 226.23 506.79 228.5 446.57"/><polygon class="e" points="228.5 446.57 257.01 437.3 285.33 448.21 257.29 457.78 228.5 446.57"/></g><g><polygon class="k" points="235.05 446.43 232.91 387.52 260.87 378.76 289.6 386.9 279.46 448.21 257.29 454.89 235.05 446.43"/><polygon class="n" points="232.91 387.52 261.67 398.1 257.29 454.89 235.05 446.43 232.91 387.52"/><polygon class="e" points="232.91 387.52 260.87 378.76 289.6 386.9 261.67 398.1 232.91 387.52"/></g><g><polygon class="k" points="238.72 387.24 235.79 329.53 261.36 319.1 291.11 326.95 283.55 387.16 261.67 395.43 238.72 387.24"/><polygon class="n" points="235.79 329.53 264.1 338.51 261.67 395.43 238.72 387.24 235.79 329.53"/><polygon class="e" points="235.79 329.53 261.36 319.1 291.11 326.95 264.1 338.51 235.79 329.53"/></g><g><polygon class="k" points="241.98 329.25 236.01 275.86 259.83 264.8 288.4 270.46 284.45 327.3 264.1 335.67 241.98 329.25"/><polygon class="n" points="236.01 275.86 262.99 282.86 264.1 335.67 241.98 329.25 236.01 275.86"/><polygon class="e" points="236.01 275.86 259.83 264.8 288.4 270.46 262.99 282.86 236.01 275.86"/></g><g><polygon class="k" points="242.31 275.26 233.17 227.83 253.25 215.47 280.06 217.9 281.95 271.1 262.99 280.4 242.31 275.26"/><polygon class="n" points="233.17 227.83 257.95 231.8 262.99 280.4 242.31 275.26 233.17 227.83"/><polygon class="e" points="233.17 227.83 253.25 215.47 280.06 217.9 257.95 231.8 233.17 227.83"/></g><g><polygon class="k" points="238.63 226.84 225.97 185.23 243.35 172.36 266.86 172.74 274.46 219.03 257.33 229.54 238.63 226.84"/><polygon class="n" points="225.97 185.23 248.38 186.83 257.33 229.54 238.63 226.84 225.97 185.23"/><polygon class="e" points="225.97 185.23 243.35 172.36 266.86 172.74 248.38 186.83 225.97 185.23"/></g><g><polygon class="k" points="230.68 183.99 216.94 144.68 233.16 132.54 254.92 131.65 262.31 174 247.32 184.94 230.68 183.99"/><polygon class="n" points="216.94 144.68 237.88 145.39 247.32 184.94 230.68 183.99 216.94 144.68"/><polygon class="e" points="216.94 144.68 233.16 132.54 254.92 131.65 237.88 145.39 216.94 144.68"/></g><g><polygon class="k" points="221.36 143.46 205.53 107.68 221.79 94.83 244.22 93.32 250.83 132.87 237.1 143.74 221.36 143.46"/><polygon class="n" points="205.53 107.68 227.5 107.58 237.1 143.74 221.36 143.46 205.53 107.68"/><polygon class="d" points="205.53 107.68 221.79 94.83 244.22 93.32 227.5 107.58 205.53 107.68"/></g><g><polygon class="j" points="239.63 155.8 239.63 130.48 261.57 119.21 282.09 130.04 282.15 158.44 261 168.64 239.63 155.8"/><path class="g" d="M261.57,119.21l11.29,13.45s.35,22.1,.32,21.71c-.04-.39-12.17,14.27-12.17,14.27l21.15-10.21-.06-28.4-20.53-10.83Z"/><polygon class="o" points="261.57 119.21 249.64 133.31 249.28 153.12 261 168.64 239.63 155.8 239.63 130.48 261.57 119.21"/></g><g><polygon class="j" points="217.23 128.45 217.24 102.27 239.92 90.62 261.15 101.81 261.21 131.18 239.34 141.73 217.23 128.45"/><path class="g" d="M239.92,90.62l11.67,13.91s.36,22.85,.33,22.45-12.58,14.76-12.58,14.76l21.87-10.55-.06-29.36-21.23-11.2Z"/><polygon class="o" points="239.92 90.62 227.59 105.2 227.21 125.68 239.34 141.73 217.23 128.45 217.24 102.27 239.92 90.62"/></g><g><polygon class="j" points="197.32 152.42 202.64 128.35 225.86 122.24 243.11 136.85 237.2 163.86 214.95 169.13 197.32 152.42"/><path class="g" d="M225.86,122.24l7.91,15.16s-4.3,21.09-4.26,20.71-14.57,11.02-14.57,11.02l22.26-5.26,5.91-27.01-17.25-14.61Z"/><polygon class="o" points="225.86 122.24 211.56 133.14 207.06 151.9 214.95 169.13 197.32 152.42 202.64 128.35 225.86 122.24"/></g><polygon class="o" points="208.02 162.56 210.6 165.01 219.15 132.68 235.97 114.93 265.97 142.85 277.48 160.69 282.15 158.44 282.14 152.62 271.19 137.79 235.97 106.25 215.89 131.33 208.02 162.56"/><polygon class="o" points="245.39 141.14 241.98 142.01 239.62 152.79 239.63 155.8 241.4 156.86 245.39 141.14"/><g><polygon class="l" points="225.09 87.99 224.47 63.89 213.66 42.76 141.52 19.32 71.67 34.29 58.68 56.68 99.15 58.96 106.17 45.6 106.57 59.52 111.55 59.71 150.46 66.41 169.12 73.01 225.09 87.99"/><polygon class="h" points="224.18 64.04 213.66 42.76 141.52 19.32 71.67 34.29 140.01 32.15 204.51 51.66 224.18 64.04"/></g><polygon class="l" points="224.18 64.04 153.68 58.72 75.62 98.07 44.49 149.61 49.21 178.34 91.63 142.31 103.6 138.23 101.21 118.98 114.2 134.62 151.13 122.02 175.04 111.48 224.18 64.04"/><polygon class="l" points="216.52 48.38 244.22 22.56 311.66 0 372.39 8.26 379.33 24.54 312.42 34.63 271.46 54.27 224.18 64.04 216.52 48.38"/><g><polygon class="l" points="224.18 64.04 267.19 38.27 392.05 44.67 466.23 98.91 466.23 130.93 382.45 95.15 377.9 76.33 372.03 94.23 345.96 91.94 224.18 71.14 224.18 64.04"/><polygon class="h" points="224.18 64.04 271.46 54.27 383.52 65.66 466.23 130.93 466.23 98.91 392.05 44.67 267.19 38.27 224.18 64.04"/></g><g><polygon class="l" points="215.41 87.75 271.19 137.79 311.25 192.06 338.49 181.53 325.46 202.77 401.7 259.17 419.65 240.97 388.05 161.87 368.54 163.44 382.12 147.28 367.15 109.91 314.81 74.57 217.11 67.35 215.41 87.75"/><polygon class="h" points="224.18 64.04 307.13 108.71 354.8 167.93 401.7 259.17 419.65 240.97 388.05 161.87 368.54 163.44 382.12 147.28 367.15 109.91 314.81 74.57 224.18 64.04"/></g><g><g><polygon class="l" points="215.89 131.33 205.95 170.78 203.86 179.06 202.7 183.66 193.75 219.19 130.09 276.26 110.01 256.6 104.76 202.54 135.22 129.88 190.17 77.41 225.34 62.65 235.97 106.25 215.89 131.33"/><polygon class="o" points="180.83 104.08 156.99 149.09 131.31 218.34 128.94 277.65 108.85 257.99 103.6 203.93 134.07 131.27 189.01 78.8 217.33 65.81 180.83 104.08"/></g><polygon class="h" points="224.18 64.04 205.37 114.87 191.03 187.23 193.75 219.19 215.89 131.33 235.97 106.25 224.18 64.04"/></g><polygon class="o" points="49.21 178.34 87.18 114.44 154.57 75.09 217.33 65.81 224.18 64.04 161.53 54.76 75.62 98.07 44.49 149.61 49.21 178.34"/><polygon class="o" points="225.86 122.24 243.11 136.85 242.36 140.27 245.59 138.71 244.97 134.97 227.31 120.41 223.54 121.88 219.15 127.36 225.86 122.24"/><polygon class="o" points="263.76 131.02 263.76 132.68 250.8 139.76 241.98 142.01 242.36 140.27 261.21 131.18 261.21 128.73 263.76 131.02"/><polygon class="o" points="224.18 64.04 216.52 48.38 244.22 22.56 311.66 0 372.39 8.26 311.91 6.9 250.07 29.6 224.18 64.04"/></g></g></g></g></svg>